HIERARCHY
ROOT hip
{
  OFFSET 0 0 0
  CHANNELS 6 Xposition Yposition Zposition Zrotation Yrotation Xrotation
  JOINT abdomen
  {
    OFFSET 0 20.6881 -0.73152
    CHANNELS 3 Zrotation Xrotation Yrotation
    JOINT chest
    {
      OFFSET 0 11.7043 -0.48768
      CHANNELS 3 Zrotation Xrotation Yrotation
      JOINT neck
      {
        OFFSET 0 22.1894 -2.19456
        CHANNELS 3 Zrotation Xrotation Yrotation
        JOINT head
        {
          OFFSET -0.24384 7.07133 1.2192
          CHANNELS 3 Zrotation Xrotation Yrotation
          JOINT leftEye
          {
            OFFSET 4.14528 8.04674 8.04672
            CHANNELS 3 Zrotation Xrotation Yrotation
            End Site
            {
              OFFSET 1 0 0
            }
          }
          JOINT rightEye
          {
            OFFSET -3.6576 8.04674 8.04672
            CHANNELS 3 Zrotation Xrotation Yrotation
            End Site
            {
              OFFSET 1 0 0
            }
          }
        }
      }
      JOINT rCollar
      {
        OFFSET -2.68224 19.2634 -4.8768
        CHANNELS 3 Zrotation Xrotation Yrotation
        JOINT rShldr
        {
          OFFSET -8.77824 -1.95073 1.46304
          CHANNELS 3 Zrotation Xrotation Yrotation
          JOINT rForeArm
          {
            OFFSET -28.1742 -1.7115 0.48768
            CHANNELS 3 Zrotation Xrotation Yrotation
            JOINT rHand
            {
              OFFSET -22.5879 0.773209 7.07136
              CHANNELS 3 Zrotation Xrotation Yrotation
              JOINT rThumb1
              {
                OFFSET -1.2192 -0.487915 3.41376
                CHANNELS 3 Zrotation Xrotation Yrotation
                JOINT rThumb2
                {
                  OFFSET -3.37035 -0.52449 3.41376
                  CHANNELS 3 Zrotation Xrotation Yrotation
                  End Site
                  {
                    OFFSET -1.78271 -1.18214 1.43049
                  }
                }
              }
              JOINT rIndex1
              {
                OFFSET -7.75947 0.938293 5.60832
                CHANNELS 3 Zrotation Xrotation Yrotation
                JOINT rIndex2
                {
                  OFFSET -2.54057 -0.884171 1.56538
                  CHANNELS 3 Zrotation Xrotation Yrotation
                  End Site
                  {
                    OFFSET -1.62519 -0.234802 1.16502
                  }
                }
              }
              JOINT rMid1
              {
                OFFSET -8.24714 1.18213 3.41376
                CHANNELS 3 Zrotation Xrotation Yrotation
                JOINT rMid2
                {
                  OFFSET -3.10165 -0.590103 1.0647
                  CHANNELS 3 Zrotation Xrotation Yrotation
                  End Site
                  {
                    OFFSET -2.48547 -0.328903 0.83742
                  }
                }
              }
              JOINT rRing1
              {
                OFFSET -8.82822 0.546677 1.51678
                CHANNELS 3 Zrotation Xrotation Yrotation
                JOINT rRing2
                {
                  OFFSET -2.60934 -0.819778 -0.0198488
                  CHANNELS 3 Zrotation Xrotation Yrotation
                  End Site
                  {
                    OFFSET -2.33842 -0.294052 0.168128
                  }
                }
              }
              JOINT rPinky1
              {
                OFFSET -8.27202 -0.0477905 -0.4584
                CHANNELS 3 Zrotation Xrotation Yrotation
                JOINT rPinky2
                {
                  OFFSET -1.82734 -0.647385 -0.700984
                  CHANNELS 3 Zrotation Xrotation Yrotation
                  End Site
                  {
                    OFFSET -1.69225 -0.51767 -0.607171
                  }
                }
              }
            }
          }
        }
      }
      JOINT lCollar
      {
        OFFSET 2.68224 19.2634 -4.8768
        CHANNELS 3 Zrotation Xrotation Yrotation
        JOINT lShldr
        {
          OFFSET 8.77824 -1.95073 1.46304
          CHANNELS 3 Zrotation Xrotation Yrotation
          JOINT lForeArm
          {
            OFFSET 28.1742 -1.7115 0.48768
            CHANNELS 3 Zrotation Xrotation Yrotation
            JOINT lHand
            {
              OFFSET 22.5879 0.773209 7.07136
              CHANNELS 3 Zrotation Xrotation Yrotation
              JOINT lThumb1
              {
                OFFSET 1.2192 -0.487915 3.41376
                CHANNELS 3 Zrotation Xrotation Yrotation
                JOINT lThumb2
                {
                  OFFSET 3.37035 -0.52449 3.41376
                  CHANNELS 3 Zrotation Xrotation Yrotation
                  End Site
                  {
                    OFFSET 1.78271 -1.18214 1.43049
                  }
                }
              }
              JOINT lIndex1
              {
                OFFSET 7.75947 0.938293 5.60832
                CHANNELS 3 Zrotation Xrotation Yrotation
                JOINT lIndex2
                {
                  OFFSET 2.54057 -0.884171 1.56538
                  CHANNELS 3 Zrotation Xrotation Yrotation
                  End Site
                  {
                    OFFSET 1.62519 -0.234802 1.16502
                  }
                }
              }
              JOINT lMid1
              {
                OFFSET 8.24714 1.18213 3.41376
                CHANNELS 3 Zrotation Xrotation Yrotation
                JOINT lMid2
                {
                  OFFSET 3.10165 -0.590103 1.0647
                  CHANNELS 3 Zrotation Xrotation Yrotation
                  End Site
                  {
                    OFFSET 2.48547 -0.328903 0.83742
                  }
                }
              }
              JOINT lRing1
              {
                OFFSET 8.82822 0.546677 1.51678
                CHANNELS 3 Zrotation Xrotation Yrotation
                JOINT lRing2
                {
                  OFFSET 2.60934 -0.819778 -0.0198488
                  CHANNELS 3 Zrotation Xrotation Yrotation
                  End Site
                  {
                    OFFSET 2.33842 -0.294052 0.168128
                  }
                }
              }
              JOINT lPinky1
              {
                OFFSET 8.27202 -0.0477905 -0.4584
                CHANNELS 3 Zrotation Xrotation Yrotation
                JOINT lPinky2
                {
                  OFFSET 1.82734 -0.647385 -0.700984
                  CHANNELS 3 Zrotation Xrotation Yrotation
                  End Site
                  {
                    OFFSET 1.69225 -0.51767 -0.607171
                  }
                }
              }
            }
          }
        }
      }
    }
  }
  JOINT rButtock
  {
    OFFSET -8.77824 4.35084 1.2192
    CHANNELS 3 Zrotation Xrotation Yrotation
    JOINT rThigh
    {
      OFFSET 0 -1.70687 -2.19456
      CHANNELS 3 Zrotation Xrotation Yrotation
      JOINT rShin
      {
        OFFSET 0 -36.8199 0.73152
        CHANNELS 3 Zrotation Xrotation Yrotation
        JOINT rFoot
        {
          OFFSET 0.73152 -45.1104 -5.12064
          CHANNELS 3 Zrotation Xrotation Yrotation
          End Site
          {
            OFFSET -1.1221 -3.69964 12.103
          }
        }
      }
    }
  }
  JOINT lButtock
  {
    OFFSET 8.77824 4.35084 1.2192
    CHANNELS 3 Zrotation Xrotation Yrotation
    JOINT lThigh
    {
      OFFSET 0 -1.70687 -2.19456
      CHANNELS 3 Zrotation Xrotation Yrotation
      JOINT lShin
      {
        OFFSET 0 -36.8199 0.73152
        CHANNELS 3 Zrotation Xrotation Yrotation
        JOINT lFoot
        {
          OFFSET -0.73152 -45.1104 -5.12064
          CHANNELS 3 Zrotation Xrotation Yrotation
          End Site
          {
            OFFSET 1.1221 -3.69964 12.103
          }
        }
      }
    }
  }
}
MOTION
Frames:	4
Frame Time:	0.00833333
80.1302 111.968 36.2321 -226.593 54.9232 -41.8098 -31.7575 23.9323 -4.64803 0.376282 -7.23903 -3.81662 -0.374891 3.93585 -2.36769 -33.1103 -27.3406 -14.3112 -0.0 0.0 0.0 -0.0 0.0 0.0 -1.04894e-13 1.94032e-13 2.23633e-14 -35.7082 -80.0404 -26.4505 -14.3565 -7.24573 26.2742 -0.0018913 1.2417 0.174536 7.79494e-09 -1.61082e-09 7.79252e-10 1.34808e-08 -2.7722e-09 1.32451e-09 7.79493e-09 -1.61081e-09 7.79242e-10 7.73091 5.47488 0.417314 7.79493e-09 -1.61082e-09 7.79258e-10 2.90554 0.965183 0.102902 7.79493e-09 -1.61081e-09 7.79253e-10 10.2786 0.731801 0.0259123 7.79493e-09 -1.61081e-09 7.79261e-10 2.22167 -0.733487 -0.20892 -1.05029e-13 1.93995e-13 2.21645e-14 -13.4815 3.19831 20.6307 22.5276 -16.5705 -45.2403 29.1888 -76.6882 36.4402 -2.54739e-09 -1.95369e-09 -7.37876e-10 -4.32703e-09 -3.04705e-09 -1.38307e-09 -2.54739e-09 -1.95368e-09 -7.37863e-10 -7.73091 5.47488 -0.417314 -2.54739e-09 -1.95369e-09 -7.37879e-10 -2.90554 0.965183 -0.102902 -2.5474e-09 -1.95369e-09 -7.37878e-10 -10.2786 0.731801 -0.0259123 -2.54738e-09 -1.95369e-09 -7.37889e-10 -2.22167 -0.733487 0.20892 -2.03217e-16 0.0 -3.88251e-19 -11.2178 4.59692 -12.6108 0.11483 -0.779212 1.01256 -4.72029 38.0047 9.48742 2.03217e-16 0.0 3.88251e-19 -95.4069 -16.7171 -142.636 -0.879712 15.0703 -8.53841 144.814 22.4449 55.7478
80.1699 112.011 36.1505 -225.262 53.7025 -41.0864 -31.1638 23.7559 -4.61564 0.380461 -7.39749 -3.72725 0.185884 3.9503 -2.29393 -33.8901 -28.2011 -14.7886 -0.0 0.0 0.0 -0.0 0.0 0.0 -6.48258e-14 1.07255e-13 -1.02172e-13 -31.8078 -80.2934 -22.1165 -14.3851 -7.26899 26.3332 -0.000203943 0.556102 0.0781824 6.72358e-09 -1.24587e-10 -3.00039e-10 1.16294e-08 -2.00471e-10 -5.42781e-10 6.72358e-09 -1.24584e-10 -3.00048e-10 7.73091 5.47488 0.417314 6.72358e-09 -1.24584e-10 -3.00034e-10 2.90554 0.965183 0.102902 6.72358e-09 -1.24581e-10 -3.00037e-10 10.2786 0.731801 0.0259123 6.72358e-09 -1.24579e-10 -3.0003e-10 2.22167 -0.733487 -0.20892 -6.4944e-14 1.07233e-13 -1.02413e-13 -12.8174 4.33232 20.5388 21.7364 -15.3775 -43.0752 19.0669 -72.3759 25.9682 -3.37703e-09 -1.70443e-09 -6.26205e-10 -5.75374e-09 -2.63829e-09 -1.23002e-09 -3.37704e-09 -1.70442e-09 -6.26195e-10 -7.73091 5.47488 -0.417314 -3.37703e-09 -1.70442e-09 -6.26208e-10 -2.90554 0.965183 -0.102902 -3.37705e-09 -1.70443e-09 -6.26207e-10 -10.2786 0.731801 -0.0259123 -3.37703e-09 -1.70443e-09 -6.26216e-10 -2.22167 -0.733487 0.20892 -2.03217e-16 0.0 -3.88251e-19 -12.5319 1.82216 -11.9222 0.111408 0.254276 0.967946 -3.00168 37.5289 6.57941 2.03217e-16 0.0 3.88251e-19 -93.5602 -15.8653 -142.378 -0.796862 14.6294 -8.34087 143.376 22.773 56.7682
80.2986 112.153 36.118 -224.225 52.2612 -40.2606 -30.4313 23.4775 -4.55067 0.357062 -7.57843 -3.608 0.742648 3.82597 -2.22157 -34.494 -28.8735 -15.1717 -0.0 0.0 0.0 -0.0 0.0 0.0 -1.84586e-14 -1.31236e-14 -2.61896e-13 -27.2414 -80.5066 -17.0442 -14.3856 -7.26908 26.3347 0.000535608 -0.133303 -0.0187082 3.68135e-09 1.7011e-09 -1.24416e-09 6.37298e-09 2.95326e-09 -2.16964e-09 3.68135e-09 1.7011e-09 -1.24417e-09 7.73091 5.47488 0.417314 3.68135e-09 1.7011e-09 -1.24416e-09 2.90554 0.965183 0.102902 3.68135e-09 1.7011e-09 -1.24416e-09 10.2786 0.731801 0.0259123 3.68135e-09 1.7011e-09 -1.24416e-09 2.22167 -0.733487 -0.20892 -1.85384e-14 -1.31162e-14 -2.622e-13 -12.0428 5.26848 20.4435 20.8966 -14.2075 -40.8403 11.959 -66.2735 18.3774 -3.59948e-09 -7.22909e-10 -1.1935e-10 -6.16538e-09 -1.02923e-09 -3.63928e-10 -3.59948e-09 -7.22907e-10 -1.19344e-10 -7.73091 5.47488 -0.417314 -3.59948e-09 -7.22908e-10 -1.19352e-10 -2.90554 0.965183 -0.102902 -3.59949e-09 -7.22909e-10 -1.19352e-10 -10.2786 0.731801 -0.0259123 -3.59948e-09 -7.22912e-10 -1.19358e-10 -2.22167 -0.733487 0.20892 -2.03217e-16 0.0 -3.88251e-19 -13.875 -1.34087 -10.9865 0.11241 1.59326 0.92961 -1.0173 36.9022 3.15698 2.03217e-16 0.0 3.88251e-19 -92.0409 -15.3571 -139.938 -0.697563 14.1896 -8.32812 144.681 23.0031 55.2719
80.59 112.281 36.1502 -223.249 50.5793 -39.2468 -29.6215 23.2261 -4.45651 0.33827 -7.78106 -3.47244 1.26631 3.68221 -2.14344 -35.0251 -29.528 -15.5181 -0.0 0.0 0.0 -0.0 0.0 0.0 3.55584e-14 -1.44436e-13 -4.30566e-13 -22.3989 -80.7316 -11.5509 -14.3563 -7.24496 26.2751 -0.000146828 -0.762394 -0.107141 1.84084e-11 3.47972e-09 -2.09958e-09 4.39262e-11 6.02383e-09 -3.64105e-09 1.84113e-11 3.47972e-09 -2.09959e-09 7.73091 5.47488 0.417314 1.84024e-11 3.47972e-09 -2.09957e-09 2.90554 0.965183 0.102902 1.84108e-11 3.47972e-09 -2.09958e-09 10.2786 0.731801 0.0259123 1.84021e-11 3.47972e-09 -2.09957e-09 2.22167 -0.733487 -0.20892 3.55228e-14 -1.44398e-13 -4.30931e-13 -11.2119 6.11282 20.4162 20.0395 -13.0848 -38.6993 7.7856 -59.4785 13.6694 -3.39705e-09 3.08016e-10 2.86208e-10 -5.84955e-09 6.47291e-10 3.46247e-10 -3.39705e-09 3.08017e-10 2.86211e-10 -7.73091 5.47488 -0.417314 -3.39705e-09 3.08017e-10 2.86207e-10 -2.90554 0.965183 -0.102902 -3.39706e-09 3.08016e-10 2.86205e-10 -10.2786 0.731801 -0.0259123 -3.39704e-09 3.08013e-10 2.86203e-10 -2.22167 -0.733487 0.20892 -2.03217e-16 0.0 -3.88251e-19 -15.211 -5.08192 -10.2297 0.104482 3.59707 0.889984 0.778126 35.929 -0.088853 2.03217e-16 0.0 3.88251e-19 -90.3367 -15.1042 -136.986 -0.674319 13.2136 -8.15224 146.192 23.5614 53.3597
